<mxfile host="app.diagrams.net" agent="Mozilla/5.0 (Windows NT 10.0; Win64; x64) AppleWebKit/537.36 (KHTML, like Gecko) Chrome/127.0.0.0 Safari/537.36 OPR/113.0.0.0" version="24.7.16">
  <diagram name="Page-1" id="qehT0WwENR8ns43DCr43">
    <mxGraphModel dx="3362" dy="2312" grid="1" gridSize="10" guides="1" tooltips="1" connect="1" arrows="1" fold="1" page="1" pageScale="1" pageWidth="850" pageHeight="1100" math="0" shadow="0">
      <root>
        <mxCell id="0" />
        <mxCell id="1" parent="0" />
        <mxCell id="ACvNIfzqrJBHl80gEe5v-92" value="&lt;h1 style=&quot;margin-top: 0px;&quot;&gt;Sidebar&lt;/h1&gt;" style="text;html=1;whiteSpace=wrap;overflow=hidden;rounded=0;" vertex="1" parent="1">
          <mxGeometry x="2140" y="-590" width="180" height="120" as="geometry" />
        </mxCell>
        <mxCell id="ACvNIfzqrJBHl80gEe5v-76" value="&lt;h1 style=&quot;margin-top: 0px;&quot;&gt;Pengguna: Ibu Bapa&lt;/h1&gt;" style="text;html=1;whiteSpace=wrap;overflow=hidden;rounded=0;" vertex="1" parent="1">
          <mxGeometry x="1680" y="70" width="250" height="120" as="geometry" />
        </mxCell>
        <mxCell id="ACvNIfzqrJBHl80gEe5v-3" value="" style="edgeStyle=orthogonalEdgeStyle;rounded=0;orthogonalLoop=1;jettySize=auto;html=1;" edge="1" parent="1" source="ACvNIfzqrJBHl80gEe5v-1" target="ACvNIfzqrJBHl80gEe5v-2">
          <mxGeometry relative="1" as="geometry" />
        </mxCell>
        <mxCell id="ACvNIfzqrJBHl80gEe5v-1" value="Login Akaun Guru" style="ellipse;whiteSpace=wrap;html=1;" vertex="1" parent="1">
          <mxGeometry x="20" y="240" width="120" height="80" as="geometry" />
        </mxCell>
        <mxCell id="ACvNIfzqrJBHl80gEe5v-5" value="" style="edgeStyle=orthogonalEdgeStyle;rounded=0;orthogonalLoop=1;jettySize=auto;html=1;" edge="1" parent="1" source="ACvNIfzqrJBHl80gEe5v-2" target="ACvNIfzqrJBHl80gEe5v-4">
          <mxGeometry relative="1" as="geometry" />
        </mxCell>
        <mxCell id="ACvNIfzqrJBHl80gEe5v-2" value="Dashboard&lt;div&gt;(carta kehadiran pelajar)&lt;/div&gt;" style="whiteSpace=wrap;html=1;" vertex="1" parent="1">
          <mxGeometry x="220" y="250" width="120" height="60" as="geometry" />
        </mxCell>
        <mxCell id="ACvNIfzqrJBHl80gEe5v-7" value="" style="edgeStyle=orthogonalEdgeStyle;rounded=0;orthogonalLoop=1;jettySize=auto;html=1;" edge="1" parent="1" source="ACvNIfzqrJBHl80gEe5v-4" target="ACvNIfzqrJBHl80gEe5v-6">
          <mxGeometry relative="1" as="geometry" />
        </mxCell>
        <mxCell id="ACvNIfzqrJBHl80gEe5v-9" value="" style="edgeStyle=orthogonalEdgeStyle;rounded=0;orthogonalLoop=1;jettySize=auto;html=1;" edge="1" parent="1" source="ACvNIfzqrJBHl80gEe5v-4" target="ACvNIfzqrJBHl80gEe5v-8">
          <mxGeometry relative="1" as="geometry" />
        </mxCell>
        <mxCell id="ACvNIfzqrJBHl80gEe5v-11" value="" style="edgeStyle=orthogonalEdgeStyle;rounded=0;orthogonalLoop=1;jettySize=auto;html=1;" edge="1" parent="1" source="ACvNIfzqrJBHl80gEe5v-4" target="ACvNIfzqrJBHl80gEe5v-10">
          <mxGeometry relative="1" as="geometry" />
        </mxCell>
        <mxCell id="ACvNIfzqrJBHl80gEe5v-4" value="Pelajar" style="rhombus;whiteSpace=wrap;html=1;" vertex="1" parent="1">
          <mxGeometry x="425" y="230" width="110" height="100" as="geometry" />
        </mxCell>
        <mxCell id="ACvNIfzqrJBHl80gEe5v-35" style="edgeStyle=orthogonalEdgeStyle;rounded=0;orthogonalLoop=1;jettySize=auto;html=1;entryX=0;entryY=0.5;entryDx=0;entryDy=0;" edge="1" parent="1" source="ACvNIfzqrJBHl80gEe5v-6" target="ACvNIfzqrJBHl80gEe5v-34">
          <mxGeometry relative="1" as="geometry" />
        </mxCell>
        <mxCell id="ACvNIfzqrJBHl80gEe5v-6" value="Guru" style="rhombus;whiteSpace=wrap;html=1;" vertex="1" parent="1">
          <mxGeometry x="425" y="-420" width="110" height="110" as="geometry" />
        </mxCell>
        <mxCell id="ACvNIfzqrJBHl80gEe5v-38" style="edgeStyle=orthogonalEdgeStyle;rounded=0;orthogonalLoop=1;jettySize=auto;html=1;entryX=0;entryY=0.5;entryDx=0;entryDy=0;" edge="1" parent="1" source="ACvNIfzqrJBHl80gEe5v-8" target="ACvNIfzqrJBHl80gEe5v-37">
          <mxGeometry relative="1" as="geometry" />
        </mxCell>
        <mxCell id="ACvNIfzqrJBHl80gEe5v-8" value="Pembayaran" style="rhombus;whiteSpace=wrap;html=1;" vertex="1" parent="1">
          <mxGeometry x="422.5" y="760" width="115" height="110" as="geometry" />
        </mxCell>
        <mxCell id="ACvNIfzqrJBHl80gEe5v-13" value="" style="edgeStyle=orthogonalEdgeStyle;rounded=0;orthogonalLoop=1;jettySize=auto;html=1;entryX=0;entryY=0.5;entryDx=0;entryDy=0;exitX=1;exitY=0.5;exitDx=0;exitDy=0;" edge="1" parent="1" source="ACvNIfzqrJBHl80gEe5v-10" target="ACvNIfzqrJBHl80gEe5v-12">
          <mxGeometry relative="1" as="geometry" />
        </mxCell>
        <mxCell id="ACvNIfzqrJBHl80gEe5v-10" value="&lt;ul&gt;&lt;li&gt;Rekod Kehadiran&lt;/li&gt;&lt;li&gt;Pendaftaran Ibu Bapa&lt;/li&gt;&lt;li&gt;Senarai Ibu Bapa&lt;/li&gt;&lt;li&gt;Senarai Pelajar&lt;/li&gt;&lt;/ul&gt;" style="whiteSpace=wrap;html=1;align=left;" vertex="1" parent="1">
          <mxGeometry x="610" y="240" width="200" height="80" as="geometry" />
        </mxCell>
        <mxCell id="ACvNIfzqrJBHl80gEe5v-24" value="" style="edgeStyle=orthogonalEdgeStyle;rounded=0;orthogonalLoop=1;jettySize=auto;html=1;" edge="1" parent="1" source="ACvNIfzqrJBHl80gEe5v-12" target="ACvNIfzqrJBHl80gEe5v-23">
          <mxGeometry relative="1" as="geometry" />
        </mxCell>
        <mxCell id="ACvNIfzqrJBHl80gEe5v-45" value="" style="edgeStyle=orthogonalEdgeStyle;rounded=0;orthogonalLoop=1;jettySize=auto;html=1;" edge="1" parent="1" source="ACvNIfzqrJBHl80gEe5v-12" target="ACvNIfzqrJBHl80gEe5v-14">
          <mxGeometry relative="1" as="geometry" />
        </mxCell>
        <mxCell id="ACvNIfzqrJBHl80gEe5v-12" value="Rekod kehadiran" style="rhombus;whiteSpace=wrap;html=1;align=center;" vertex="1" parent="1">
          <mxGeometry x="950" y="-80" width="120" height="120" as="geometry" />
        </mxCell>
        <mxCell id="ACvNIfzqrJBHl80gEe5v-26" value="" style="edgeStyle=orthogonalEdgeStyle;rounded=0;orthogonalLoop=1;jettySize=auto;html=1;entryX=0;entryY=0.5;entryDx=0;entryDy=0;" edge="1" parent="1" source="ACvNIfzqrJBHl80gEe5v-14" target="ACvNIfzqrJBHl80gEe5v-27">
          <mxGeometry relative="1" as="geometry">
            <mxPoint x="1150" y="170" as="targetPoint" />
          </mxGeometry>
        </mxCell>
        <mxCell id="ACvNIfzqrJBHl80gEe5v-46" value="" style="edgeStyle=orthogonalEdgeStyle;rounded=0;orthogonalLoop=1;jettySize=auto;html=1;" edge="1" parent="1" source="ACvNIfzqrJBHl80gEe5v-14" target="ACvNIfzqrJBHl80gEe5v-15">
          <mxGeometry relative="1" as="geometry" />
        </mxCell>
        <mxCell id="ACvNIfzqrJBHl80gEe5v-14" value="Pendaftaran&lt;div&gt;&amp;nbsp;akaun Ibu Bapa&lt;/div&gt;" style="rhombus;whiteSpace=wrap;html=1;align=center;" vertex="1" parent="1">
          <mxGeometry x="950" y="110" width="120" height="120" as="geometry" />
        </mxCell>
        <mxCell id="ACvNIfzqrJBHl80gEe5v-29" style="edgeStyle=orthogonalEdgeStyle;rounded=0;orthogonalLoop=1;jettySize=auto;html=1;entryX=0;entryY=0.5;entryDx=0;entryDy=0;" edge="1" parent="1" source="ACvNIfzqrJBHl80gEe5v-15" target="ACvNIfzqrJBHl80gEe5v-28">
          <mxGeometry relative="1" as="geometry" />
        </mxCell>
        <mxCell id="ACvNIfzqrJBHl80gEe5v-47" value="" style="edgeStyle=orthogonalEdgeStyle;rounded=0;orthogonalLoop=1;jettySize=auto;html=1;" edge="1" parent="1" source="ACvNIfzqrJBHl80gEe5v-15" target="ACvNIfzqrJBHl80gEe5v-21">
          <mxGeometry relative="1" as="geometry" />
        </mxCell>
        <mxCell id="ACvNIfzqrJBHl80gEe5v-15" value="Senarai Ibu Bapa" style="rhombus;whiteSpace=wrap;html=1;align=center;" vertex="1" parent="1">
          <mxGeometry x="950" y="305" width="120" height="120" as="geometry" />
        </mxCell>
        <mxCell id="ACvNIfzqrJBHl80gEe5v-33" style="edgeStyle=orthogonalEdgeStyle;rounded=0;orthogonalLoop=1;jettySize=auto;html=1;entryX=0;entryY=0.5;entryDx=0;entryDy=0;" edge="1" parent="1" source="ACvNIfzqrJBHl80gEe5v-21" target="ACvNIfzqrJBHl80gEe5v-32">
          <mxGeometry relative="1" as="geometry" />
        </mxCell>
        <mxCell id="ACvNIfzqrJBHl80gEe5v-21" value="Senarai Pelajar" style="rhombus;whiteSpace=wrap;html=1;align=center;" vertex="1" parent="1">
          <mxGeometry x="942.5" y="490" width="135" height="130" as="geometry" />
        </mxCell>
        <mxCell id="ACvNIfzqrJBHl80gEe5v-23" value="&lt;ul&gt;&lt;li&gt;Semak/Tambah data kehadiran Pelajar&lt;/li&gt;&lt;li&gt;&#39;Save&#39;/&#39;Download&#39; table&lt;/li&gt;&lt;/ul&gt;" style="whiteSpace=wrap;html=1;align=left;" vertex="1" parent="1">
          <mxGeometry x="1180" y="-75" width="230" height="110" as="geometry" />
        </mxCell>
        <mxCell id="ACvNIfzqrJBHl80gEe5v-27" value="&lt;ul&gt;&lt;li&gt;Daftar maklumat pendek seperti nama log masuk, kata laluan dan emel&amp;nbsp;&lt;/li&gt;&lt;/ul&gt;" style="whiteSpace=wrap;html=1;align=left;" vertex="1" parent="1">
          <mxGeometry x="1180" y="115" width="230" height="110" as="geometry" />
        </mxCell>
        <mxCell id="ACvNIfzqrJBHl80gEe5v-28" value="&lt;ul&gt;&lt;li&gt;Mendapatkan maklumat ibu bapa untuk murid kelas sendiri&lt;/li&gt;&lt;/ul&gt;" style="whiteSpace=wrap;html=1;align=left;" vertex="1" parent="1">
          <mxGeometry x="1180" y="310" width="230" height="110" as="geometry" />
        </mxCell>
        <mxCell id="ACvNIfzqrJBHl80gEe5v-32" value="&lt;ul&gt;&lt;li&gt;Mendapatkan maklumat murid kelas sendiri&lt;/li&gt;&lt;/ul&gt;" style="whiteSpace=wrap;html=1;align=left;" vertex="1" parent="1">
          <mxGeometry x="1180" y="500" width="230" height="110" as="geometry" />
        </mxCell>
        <mxCell id="ACvNIfzqrJBHl80gEe5v-40" style="edgeStyle=orthogonalEdgeStyle;rounded=0;orthogonalLoop=1;jettySize=auto;html=1;entryX=0;entryY=0.5;entryDx=0;entryDy=0;" edge="1" parent="1" source="ACvNIfzqrJBHl80gEe5v-34" target="ACvNIfzqrJBHl80gEe5v-39">
          <mxGeometry relative="1" as="geometry" />
        </mxCell>
        <mxCell id="ACvNIfzqrJBHl80gEe5v-34" value="&lt;ul&gt;&lt;li&gt;Senarai Kelas&lt;/li&gt;&lt;li&gt;Senarai Guru&lt;/li&gt;&lt;li&gt;Daftar Kelas&lt;/li&gt;&lt;/ul&gt;" style="whiteSpace=wrap;html=1;align=left;" vertex="1" parent="1">
          <mxGeometry x="610" y="-405" width="200" height="80" as="geometry" />
        </mxCell>
        <mxCell id="ACvNIfzqrJBHl80gEe5v-61" style="edgeStyle=orthogonalEdgeStyle;rounded=0;orthogonalLoop=1;jettySize=auto;html=1;exitX=1;exitY=0.5;exitDx=0;exitDy=0;entryX=0;entryY=0.5;entryDx=0;entryDy=0;" edge="1" parent="1" source="ACvNIfzqrJBHl80gEe5v-37" target="ACvNIfzqrJBHl80gEe5v-57">
          <mxGeometry relative="1" as="geometry">
            <mxPoint x="970" y="815" as="targetPoint" />
          </mxGeometry>
        </mxCell>
        <mxCell id="ACvNIfzqrJBHl80gEe5v-37" value="&lt;ul&gt;&lt;li&gt;Pembayaran Yuran&lt;/li&gt;&lt;li&gt;Rekod Pembayaran&lt;/li&gt;&lt;li&gt;Status Yuran Bulanan&lt;/li&gt;&lt;li&gt;Rumusan Bayaran Kelas&lt;/li&gt;&lt;/ul&gt;" style="whiteSpace=wrap;html=1;align=left;" vertex="1" parent="1">
          <mxGeometry x="610" y="775" width="200" height="80" as="geometry" />
        </mxCell>
        <mxCell id="ACvNIfzqrJBHl80gEe5v-49" value="" style="edgeStyle=orthogonalEdgeStyle;rounded=0;orthogonalLoop=1;jettySize=auto;html=1;" edge="1" parent="1" source="ACvNIfzqrJBHl80gEe5v-39" target="ACvNIfzqrJBHl80gEe5v-41">
          <mxGeometry relative="1" as="geometry" />
        </mxCell>
        <mxCell id="ACvNIfzqrJBHl80gEe5v-52" value="" style="edgeStyle=orthogonalEdgeStyle;rounded=0;orthogonalLoop=1;jettySize=auto;html=1;" edge="1" parent="1" source="ACvNIfzqrJBHl80gEe5v-39" target="ACvNIfzqrJBHl80gEe5v-51">
          <mxGeometry relative="1" as="geometry" />
        </mxCell>
        <mxCell id="ACvNIfzqrJBHl80gEe5v-39" value="Senarai Kelas" style="rhombus;whiteSpace=wrap;html=1;align=center;" vertex="1" parent="1">
          <mxGeometry x="970" y="-690" width="120" height="120" as="geometry" />
        </mxCell>
        <mxCell id="ACvNIfzqrJBHl80gEe5v-50" value="" style="edgeStyle=orthogonalEdgeStyle;rounded=0;orthogonalLoop=1;jettySize=auto;html=1;" edge="1" parent="1" source="ACvNIfzqrJBHl80gEe5v-41" target="ACvNIfzqrJBHl80gEe5v-42">
          <mxGeometry relative="1" as="geometry" />
        </mxCell>
        <mxCell id="ACvNIfzqrJBHl80gEe5v-54" value="" style="edgeStyle=orthogonalEdgeStyle;rounded=0;orthogonalLoop=1;jettySize=auto;html=1;" edge="1" parent="1" source="ACvNIfzqrJBHl80gEe5v-41" target="ACvNIfzqrJBHl80gEe5v-53">
          <mxGeometry relative="1" as="geometry" />
        </mxCell>
        <mxCell id="ACvNIfzqrJBHl80gEe5v-41" value="Senarai Guru" style="rhombus;whiteSpace=wrap;html=1;align=center;" vertex="1" parent="1">
          <mxGeometry x="970" y="-470" width="120" height="120" as="geometry" />
        </mxCell>
        <mxCell id="ACvNIfzqrJBHl80gEe5v-56" value="" style="edgeStyle=orthogonalEdgeStyle;rounded=0;orthogonalLoop=1;jettySize=auto;html=1;" edge="1" parent="1" source="ACvNIfzqrJBHl80gEe5v-42" target="ACvNIfzqrJBHl80gEe5v-55">
          <mxGeometry relative="1" as="geometry" />
        </mxCell>
        <mxCell id="ACvNIfzqrJBHl80gEe5v-42" value="Daftar Kelas" style="rhombus;whiteSpace=wrap;html=1;align=center;" vertex="1" parent="1">
          <mxGeometry x="970" y="-290" width="120" height="120" as="geometry" />
        </mxCell>
        <mxCell id="ACvNIfzqrJBHl80gEe5v-51" value="&lt;ul&gt;&lt;li&gt;Semak data kehadiran Pelajar&lt;/li&gt;&lt;li&gt;Bilangan kehadiran pelajar setiap kelas&lt;/li&gt;&lt;/ul&gt;" style="whiteSpace=wrap;html=1;align=left;" vertex="1" parent="1">
          <mxGeometry x="1160" y="-685" width="230" height="110" as="geometry" />
        </mxCell>
        <mxCell id="ACvNIfzqrJBHl80gEe5v-53" value="&lt;ul&gt;&lt;li&gt;&#39;List&#39; guru serta phone nombor setiap guru kelas yang berkuasa&lt;/li&gt;&lt;/ul&gt;" style="whiteSpace=wrap;html=1;align=left;" vertex="1" parent="1">
          <mxGeometry x="1160" y="-465" width="230" height="110" as="geometry" />
        </mxCell>
        <mxCell id="ACvNIfzqrJBHl80gEe5v-55" value="&lt;ul&gt;&lt;li&gt;Memilih kelas yang akan diambil alih untuk sepanjang tahun&lt;/li&gt;&lt;li&gt;Mendaftarkan kelas hanya untuk diri pengguna sahaja.&lt;/li&gt;&lt;/ul&gt;" style="whiteSpace=wrap;html=1;align=left;" vertex="1" parent="1">
          <mxGeometry x="1160" y="-285" width="230" height="110" as="geometry" />
        </mxCell>
        <mxCell id="ACvNIfzqrJBHl80gEe5v-62" value="" style="edgeStyle=orthogonalEdgeStyle;rounded=0;orthogonalLoop=1;jettySize=auto;html=1;" edge="1" parent="1" source="ACvNIfzqrJBHl80gEe5v-57" target="ACvNIfzqrJBHl80gEe5v-58">
          <mxGeometry relative="1" as="geometry" />
        </mxCell>
        <mxCell id="ACvNIfzqrJBHl80gEe5v-69" value="" style="edgeStyle=orthogonalEdgeStyle;rounded=0;orthogonalLoop=1;jettySize=auto;html=1;" edge="1" parent="1" source="ACvNIfzqrJBHl80gEe5v-57" target="ACvNIfzqrJBHl80gEe5v-68">
          <mxGeometry relative="1" as="geometry" />
        </mxCell>
        <mxCell id="ACvNIfzqrJBHl80gEe5v-57" value="Pembayaran&amp;nbsp;&lt;div&gt;Yuran&lt;/div&gt;" style="rhombus;whiteSpace=wrap;html=1;align=center;" vertex="1" parent="1">
          <mxGeometry x="970" y="755" width="120" height="120" as="geometry" />
        </mxCell>
        <mxCell id="ACvNIfzqrJBHl80gEe5v-63" value="" style="edgeStyle=orthogonalEdgeStyle;rounded=0;orthogonalLoop=1;jettySize=auto;html=1;" edge="1" parent="1" source="ACvNIfzqrJBHl80gEe5v-58" target="ACvNIfzqrJBHl80gEe5v-59">
          <mxGeometry relative="1" as="geometry" />
        </mxCell>
        <mxCell id="ACvNIfzqrJBHl80gEe5v-73" value="" style="edgeStyle=orthogonalEdgeStyle;rounded=0;orthogonalLoop=1;jettySize=auto;html=1;" edge="1" parent="1" source="ACvNIfzqrJBHl80gEe5v-58" target="ACvNIfzqrJBHl80gEe5v-70">
          <mxGeometry relative="1" as="geometry" />
        </mxCell>
        <mxCell id="ACvNIfzqrJBHl80gEe5v-58" value="Rekod&amp;nbsp;&lt;div&gt;Pembayaran&lt;/div&gt;" style="rhombus;whiteSpace=wrap;html=1;align=center;" vertex="1" parent="1">
          <mxGeometry x="970" y="950" width="120" height="120" as="geometry" />
        </mxCell>
        <mxCell id="ACvNIfzqrJBHl80gEe5v-64" value="" style="edgeStyle=orthogonalEdgeStyle;rounded=0;orthogonalLoop=1;jettySize=auto;html=1;" edge="1" parent="1" source="ACvNIfzqrJBHl80gEe5v-59" target="ACvNIfzqrJBHl80gEe5v-60">
          <mxGeometry relative="1" as="geometry" />
        </mxCell>
        <mxCell id="ACvNIfzqrJBHl80gEe5v-74" style="edgeStyle=orthogonalEdgeStyle;rounded=0;orthogonalLoop=1;jettySize=auto;html=1;entryX=0;entryY=0.5;entryDx=0;entryDy=0;" edge="1" parent="1" source="ACvNIfzqrJBHl80gEe5v-59" target="ACvNIfzqrJBHl80gEe5v-71">
          <mxGeometry relative="1" as="geometry" />
        </mxCell>
        <mxCell id="ACvNIfzqrJBHl80gEe5v-59" value="Status Yuran&amp;nbsp;&lt;div&gt;Bulanan&lt;/div&gt;" style="rhombus;whiteSpace=wrap;html=1;align=center;" vertex="1" parent="1">
          <mxGeometry x="970" y="1145" width="120" height="120" as="geometry" />
        </mxCell>
        <mxCell id="ACvNIfzqrJBHl80gEe5v-75" value="" style="edgeStyle=orthogonalEdgeStyle;rounded=0;orthogonalLoop=1;jettySize=auto;html=1;" edge="1" parent="1" source="ACvNIfzqrJBHl80gEe5v-60" target="ACvNIfzqrJBHl80gEe5v-72">
          <mxGeometry relative="1" as="geometry" />
        </mxCell>
        <mxCell id="ACvNIfzqrJBHl80gEe5v-60" value="Rumusan Bayaran&lt;div&gt;&amp;nbsp;Kelas&lt;/div&gt;" style="rhombus;whiteSpace=wrap;html=1;align=center;" vertex="1" parent="1">
          <mxGeometry x="962.5" y="1330" width="135" height="130" as="geometry" />
        </mxCell>
        <mxCell id="ACvNIfzqrJBHl80gEe5v-66" value="&lt;h1 style=&quot;margin-top: 0px;&quot;&gt;Sidebar&lt;/h1&gt;" style="text;html=1;whiteSpace=wrap;overflow=hidden;rounded=0;" vertex="1" parent="1">
          <mxGeometry x="400" y="-480" width="180" height="120" as="geometry" />
        </mxCell>
        <mxCell id="ACvNIfzqrJBHl80gEe5v-67" value="&lt;h1 style=&quot;margin-top: 0px;&quot;&gt;Pengguna: Guru&lt;/h1&gt;" style="text;html=1;whiteSpace=wrap;overflow=hidden;rounded=0;" vertex="1" parent="1">
          <mxGeometry x="-10" y="140" width="200" height="120" as="geometry" />
        </mxCell>
        <mxCell id="ACvNIfzqrJBHl80gEe5v-68" value="&lt;ul&gt;&lt;li&gt;Menambah produk untuk dijual kepada pengguna berakses &#39;parent&#39; atau ibu bapa&lt;/li&gt;&lt;/ul&gt;" style="whiteSpace=wrap;html=1;align=left;" vertex="1" parent="1">
          <mxGeometry x="1190" y="757.5" width="250" height="115" as="geometry" />
        </mxCell>
        <mxCell id="ACvNIfzqrJBHl80gEe5v-70" value="&lt;ul&gt;&lt;li&gt;Melihat bukti pembayaran dari ibu bapa&lt;/li&gt;&lt;li&gt;Mengesahkan pembayaran&lt;/li&gt;&lt;/ul&gt;" style="whiteSpace=wrap;html=1;align=left;" vertex="1" parent="1">
          <mxGeometry x="1190" y="952.5" width="250" height="115" as="geometry" />
        </mxCell>
        <mxCell id="ACvNIfzqrJBHl80gEe5v-71" value="&lt;ul&gt;&lt;li&gt;Mengesahkan pembayaran yuran bulanan&lt;/li&gt;&lt;li&gt;Menambah/menyimpan maklumat sudah/belum bayar pada setiap bulan&lt;/li&gt;&lt;/ul&gt;" style="whiteSpace=wrap;html=1;align=left;" vertex="1" parent="1">
          <mxGeometry x="1190" y="1147.5" width="250" height="115" as="geometry" />
        </mxCell>
        <mxCell id="ACvNIfzqrJBHl80gEe5v-72" value="&lt;ul&gt;&lt;li&gt;Menyimpan maklumat bayaran bulanan dari ibu bapa&lt;/li&gt;&lt;li&gt;Menyatakan pengiraan/anggaran bayaran yang sepatutnya didapatkan daripada setiap kelas&lt;/li&gt;&lt;li&gt;Menyatakan hasil/bayaran sebenar yang diterima&lt;/li&gt;&lt;/ul&gt;" style="whiteSpace=wrap;html=1;align=left;" vertex="1" parent="1">
          <mxGeometry x="1190" y="1337.5" width="250" height="115" as="geometry" />
        </mxCell>
        <mxCell id="ACvNIfzqrJBHl80gEe5v-85" style="edgeStyle=orthogonalEdgeStyle;rounded=0;orthogonalLoop=1;jettySize=auto;html=1;exitX=1;exitY=0.5;exitDx=0;exitDy=0;entryX=0;entryY=0.5;entryDx=0;entryDy=0;" edge="1" parent="1" source="ACvNIfzqrJBHl80gEe5v-77" target="ACvNIfzqrJBHl80gEe5v-78">
          <mxGeometry relative="1" as="geometry" />
        </mxCell>
        <mxCell id="ACvNIfzqrJBHl80gEe5v-77" value="Login Akaun&amp;nbsp;&lt;div&gt;Ibu Bapa&lt;/div&gt;" style="ellipse;whiteSpace=wrap;html=1;" vertex="1" parent="1">
          <mxGeometry x="1720" y="130" width="120" height="80" as="geometry" />
        </mxCell>
        <mxCell id="ACvNIfzqrJBHl80gEe5v-78" value="Dashboard&lt;div&gt;(table invois)&lt;/div&gt;" style="whiteSpace=wrap;html=1;" vertex="1" parent="1">
          <mxGeometry x="1950" y="140" width="120" height="60" as="geometry" />
        </mxCell>
        <mxCell id="ACvNIfzqrJBHl80gEe5v-83" value="" style="endArrow=none;dashed=1;html=1;rounded=0;exitX=1;exitY=0.5;exitDx=0;exitDy=0;entryX=0;entryY=0.5;entryDx=0;entryDy=0;" edge="1" parent="1" source="ACvNIfzqrJBHl80gEe5v-27" target="ACvNIfzqrJBHl80gEe5v-77">
          <mxGeometry width="50" height="50" relative="1" as="geometry">
            <mxPoint x="1160" y="-50" as="sourcePoint" />
            <mxPoint x="1590" y="-80" as="targetPoint" />
          </mxGeometry>
        </mxCell>
        <mxCell id="ACvNIfzqrJBHl80gEe5v-86" value="" style="edgeStyle=orthogonalEdgeStyle;rounded=0;orthogonalLoop=1;jettySize=auto;html=1;" edge="1" target="ACvNIfzqrJBHl80gEe5v-89" parent="1">
          <mxGeometry relative="1" as="geometry">
            <mxPoint x="2070" y="170" as="sourcePoint" />
          </mxGeometry>
        </mxCell>
        <mxCell id="ACvNIfzqrJBHl80gEe5v-87" value="" style="edgeStyle=orthogonalEdgeStyle;rounded=0;orthogonalLoop=1;jettySize=auto;html=1;" edge="1" source="ACvNIfzqrJBHl80gEe5v-89" target="ACvNIfzqrJBHl80gEe5v-90" parent="1">
          <mxGeometry relative="1" as="geometry" />
        </mxCell>
        <mxCell id="ACvNIfzqrJBHl80gEe5v-88" value="" style="edgeStyle=orthogonalEdgeStyle;rounded=0;orthogonalLoop=1;jettySize=auto;html=1;" edge="1" source="ACvNIfzqrJBHl80gEe5v-89" target="ACvNIfzqrJBHl80gEe5v-91" parent="1">
          <mxGeometry relative="1" as="geometry" />
        </mxCell>
        <mxCell id="ACvNIfzqrJBHl80gEe5v-100" value="" style="edgeStyle=orthogonalEdgeStyle;rounded=0;orthogonalLoop=1;jettySize=auto;html=1;" edge="1" parent="1" source="ACvNIfzqrJBHl80gEe5v-89" target="ACvNIfzqrJBHl80gEe5v-95">
          <mxGeometry relative="1" as="geometry" />
        </mxCell>
        <mxCell id="ACvNIfzqrJBHl80gEe5v-89" value="Pelajar" style="rhombus;whiteSpace=wrap;html=1;" vertex="1" parent="1">
          <mxGeometry x="2155" y="120" width="110" height="100" as="geometry" />
        </mxCell>
        <mxCell id="ACvNIfzqrJBHl80gEe5v-94" style="edgeStyle=orthogonalEdgeStyle;rounded=0;orthogonalLoop=1;jettySize=auto;html=1;exitX=1;exitY=0.5;exitDx=0;exitDy=0;entryX=0;entryY=0.5;entryDx=0;entryDy=0;" edge="1" parent="1" source="ACvNIfzqrJBHl80gEe5v-90" target="ACvNIfzqrJBHl80gEe5v-93">
          <mxGeometry relative="1" as="geometry" />
        </mxCell>
        <mxCell id="ACvNIfzqrJBHl80gEe5v-90" value="Guru" style="rhombus;whiteSpace=wrap;html=1;" vertex="1" parent="1">
          <mxGeometry x="2155" y="-530" width="110" height="110" as="geometry" />
        </mxCell>
        <mxCell id="ACvNIfzqrJBHl80gEe5v-99" value="" style="edgeStyle=orthogonalEdgeStyle;rounded=0;orthogonalLoop=1;jettySize=auto;html=1;" edge="1" parent="1" source="ACvNIfzqrJBHl80gEe5v-91" target="ACvNIfzqrJBHl80gEe5v-98">
          <mxGeometry relative="1" as="geometry" />
        </mxCell>
        <mxCell id="ACvNIfzqrJBHl80gEe5v-91" value="Pembayaran" style="rhombus;whiteSpace=wrap;html=1;" vertex="1" parent="1">
          <mxGeometry x="2152.5" y="650" width="115" height="110" as="geometry" />
        </mxCell>
        <mxCell id="ACvNIfzqrJBHl80gEe5v-103" style="edgeStyle=orthogonalEdgeStyle;rounded=0;orthogonalLoop=1;jettySize=auto;html=1;exitX=1;exitY=0.5;exitDx=0;exitDy=0;entryX=0;entryY=0.5;entryDx=0;entryDy=0;" edge="1" parent="1" source="ACvNIfzqrJBHl80gEe5v-93" target="ACvNIfzqrJBHl80gEe5v-101">
          <mxGeometry relative="1" as="geometry" />
        </mxCell>
        <mxCell id="ACvNIfzqrJBHl80gEe5v-93" value="&lt;ul&gt;&lt;li&gt;Senarai Kelas&lt;/li&gt;&lt;li&gt;Senarai Guru&lt;/li&gt;&lt;/ul&gt;" style="whiteSpace=wrap;html=1;align=left;" vertex="1" parent="1">
          <mxGeometry x="2350" y="-515" width="200" height="80" as="geometry" />
        </mxCell>
        <mxCell id="ACvNIfzqrJBHl80gEe5v-106" style="edgeStyle=orthogonalEdgeStyle;rounded=0;orthogonalLoop=1;jettySize=auto;html=1;exitX=1;exitY=0.5;exitDx=0;exitDy=0;entryX=0;entryY=0.5;entryDx=0;entryDy=0;" edge="1" parent="1" source="ACvNIfzqrJBHl80gEe5v-95" target="ACvNIfzqrJBHl80gEe5v-105">
          <mxGeometry relative="1" as="geometry" />
        </mxCell>
        <mxCell id="ACvNIfzqrJBHl80gEe5v-95" value="&lt;ul&gt;&lt;li&gt;Senarai Pelajar&lt;/li&gt;&lt;li&gt;Daftar Kelas&lt;/li&gt;&lt;li&gt;Pendaftaran Pelajar&lt;/li&gt;&lt;/ul&gt;" style="whiteSpace=wrap;html=1;align=left;" vertex="1" parent="1">
          <mxGeometry x="2350" y="130" width="200" height="80" as="geometry" />
        </mxCell>
        <mxCell id="ACvNIfzqrJBHl80gEe5v-113" style="edgeStyle=orthogonalEdgeStyle;rounded=0;orthogonalLoop=1;jettySize=auto;html=1;exitX=1;exitY=0.5;exitDx=0;exitDy=0;entryX=0;entryY=0.5;entryDx=0;entryDy=0;" edge="1" parent="1" source="ACvNIfzqrJBHl80gEe5v-98" target="ACvNIfzqrJBHl80gEe5v-111">
          <mxGeometry relative="1" as="geometry" />
        </mxCell>
        <mxCell id="ACvNIfzqrJBHl80gEe5v-98" value="&lt;ul&gt;&lt;li&gt;Pembayaran Yuran&lt;/li&gt;&lt;li&gt;Rekod Pembayaran Yuran&lt;/li&gt;&lt;/ul&gt;" style="whiteSpace=wrap;html=1;align=left;" vertex="1" parent="1">
          <mxGeometry x="2360" y="665" width="200" height="80" as="geometry" />
        </mxCell>
        <mxCell id="ACvNIfzqrJBHl80gEe5v-104" value="" style="edgeStyle=orthogonalEdgeStyle;rounded=0;orthogonalLoop=1;jettySize=auto;html=1;" edge="1" parent="1" source="ACvNIfzqrJBHl80gEe5v-101" target="ACvNIfzqrJBHl80gEe5v-102">
          <mxGeometry relative="1" as="geometry" />
        </mxCell>
        <mxCell id="ACvNIfzqrJBHl80gEe5v-118" value="" style="edgeStyle=orthogonalEdgeStyle;rounded=0;orthogonalLoop=1;jettySize=auto;html=1;" edge="1" parent="1" source="ACvNIfzqrJBHl80gEe5v-101" target="ACvNIfzqrJBHl80gEe5v-117">
          <mxGeometry relative="1" as="geometry" />
        </mxCell>
        <mxCell id="ACvNIfzqrJBHl80gEe5v-101" value="Senarai Kelas" style="rhombus;whiteSpace=wrap;html=1;align=center;" vertex="1" parent="1">
          <mxGeometry x="2650" y="-610" width="120" height="120" as="geometry" />
        </mxCell>
        <mxCell id="ACvNIfzqrJBHl80gEe5v-120" value="" style="edgeStyle=orthogonalEdgeStyle;rounded=0;orthogonalLoop=1;jettySize=auto;html=1;entryX=0;entryY=0.5;entryDx=0;entryDy=0;" edge="1" parent="1" source="ACvNIfzqrJBHl80gEe5v-102" target="ACvNIfzqrJBHl80gEe5v-123">
          <mxGeometry relative="1" as="geometry">
            <mxPoint x="2860" y="-330" as="targetPoint" />
          </mxGeometry>
        </mxCell>
        <mxCell id="ACvNIfzqrJBHl80gEe5v-102" value="Senarai Guru" style="rhombus;whiteSpace=wrap;html=1;align=center;" vertex="1" parent="1">
          <mxGeometry x="2650" y="-390" width="120" height="120" as="geometry" />
        </mxCell>
        <mxCell id="ACvNIfzqrJBHl80gEe5v-108" value="" style="edgeStyle=orthogonalEdgeStyle;rounded=0;orthogonalLoop=1;jettySize=auto;html=1;" edge="1" parent="1" source="ACvNIfzqrJBHl80gEe5v-105" target="ACvNIfzqrJBHl80gEe5v-107">
          <mxGeometry relative="1" as="geometry" />
        </mxCell>
        <mxCell id="ACvNIfzqrJBHl80gEe5v-130" style="edgeStyle=orthogonalEdgeStyle;rounded=0;orthogonalLoop=1;jettySize=auto;html=1;exitX=1;exitY=0.5;exitDx=0;exitDy=0;entryX=0;entryY=0.5;entryDx=0;entryDy=0;" edge="1" parent="1" source="ACvNIfzqrJBHl80gEe5v-105" target="ACvNIfzqrJBHl80gEe5v-126">
          <mxGeometry relative="1" as="geometry" />
        </mxCell>
        <mxCell id="ACvNIfzqrJBHl80gEe5v-105" value="Senarai Pelajar" style="rhombus;whiteSpace=wrap;html=1;align=center;" vertex="1" parent="1">
          <mxGeometry x="2650" y="-5" width="120" height="120" as="geometry" />
        </mxCell>
        <mxCell id="ACvNIfzqrJBHl80gEe5v-110" value="" style="edgeStyle=orthogonalEdgeStyle;rounded=0;orthogonalLoop=1;jettySize=auto;html=1;" edge="1" parent="1" source="ACvNIfzqrJBHl80gEe5v-107" target="ACvNIfzqrJBHl80gEe5v-109">
          <mxGeometry relative="1" as="geometry" />
        </mxCell>
        <mxCell id="ACvNIfzqrJBHl80gEe5v-129" style="edgeStyle=orthogonalEdgeStyle;rounded=0;orthogonalLoop=1;jettySize=auto;html=1;exitX=1;exitY=0.5;exitDx=0;exitDy=0;entryX=0;entryY=0.5;entryDx=0;entryDy=0;" edge="1" parent="1" source="ACvNIfzqrJBHl80gEe5v-107" target="ACvNIfzqrJBHl80gEe5v-125">
          <mxGeometry relative="1" as="geometry" />
        </mxCell>
        <mxCell id="ACvNIfzqrJBHl80gEe5v-107" value="Daftar Kelas" style="rhombus;whiteSpace=wrap;html=1;align=center;" vertex="1" parent="1">
          <mxGeometry x="2650" y="195" width="120" height="120" as="geometry" />
        </mxCell>
        <mxCell id="ACvNIfzqrJBHl80gEe5v-128" style="edgeStyle=orthogonalEdgeStyle;rounded=0;orthogonalLoop=1;jettySize=auto;html=1;exitX=1;exitY=0.5;exitDx=0;exitDy=0;entryX=0;entryY=0.5;entryDx=0;entryDy=0;" edge="1" parent="1" source="ACvNIfzqrJBHl80gEe5v-109" target="ACvNIfzqrJBHl80gEe5v-127">
          <mxGeometry relative="1" as="geometry" />
        </mxCell>
        <mxCell id="ACvNIfzqrJBHl80gEe5v-109" value="Pendaftaran&amp;nbsp;&lt;div&gt;Pelajar&lt;/div&gt;" style="rhombus;whiteSpace=wrap;html=1;align=center;" vertex="1" parent="1">
          <mxGeometry x="2650" y="395" width="120" height="120" as="geometry" />
        </mxCell>
        <mxCell id="ACvNIfzqrJBHl80gEe5v-114" value="" style="edgeStyle=orthogonalEdgeStyle;rounded=0;orthogonalLoop=1;jettySize=auto;html=1;" edge="1" parent="1" source="ACvNIfzqrJBHl80gEe5v-111" target="ACvNIfzqrJBHl80gEe5v-112">
          <mxGeometry relative="1" as="geometry" />
        </mxCell>
        <mxCell id="ACvNIfzqrJBHl80gEe5v-133" style="edgeStyle=orthogonalEdgeStyle;rounded=0;orthogonalLoop=1;jettySize=auto;html=1;exitX=1;exitY=0.5;exitDx=0;exitDy=0;entryX=0;entryY=0.5;entryDx=0;entryDy=0;" edge="1" parent="1" source="ACvNIfzqrJBHl80gEe5v-111" target="ACvNIfzqrJBHl80gEe5v-131">
          <mxGeometry relative="1" as="geometry" />
        </mxCell>
        <mxCell id="ACvNIfzqrJBHl80gEe5v-111" value="Pembayaran&amp;nbsp;&lt;div&gt;Yuran&lt;/div&gt;" style="rhombus;whiteSpace=wrap;html=1;align=center;" vertex="1" parent="1">
          <mxGeometry x="2650" y="600" width="120" height="120" as="geometry" />
        </mxCell>
        <mxCell id="ACvNIfzqrJBHl80gEe5v-134" style="edgeStyle=orthogonalEdgeStyle;rounded=0;orthogonalLoop=1;jettySize=auto;html=1;exitX=1;exitY=0.5;exitDx=0;exitDy=0;entryX=0;entryY=0.5;entryDx=0;entryDy=0;" edge="1" parent="1" source="ACvNIfzqrJBHl80gEe5v-112" target="ACvNIfzqrJBHl80gEe5v-132">
          <mxGeometry relative="1" as="geometry" />
        </mxCell>
        <mxCell id="ACvNIfzqrJBHl80gEe5v-112" value="Rekod&amp;nbsp;&lt;div&gt;Pembayaran&amp;nbsp;&lt;/div&gt;&lt;div&gt;Yuran&lt;/div&gt;" style="rhombus;whiteSpace=wrap;html=1;align=center;" vertex="1" parent="1">
          <mxGeometry x="2650" y="800" width="120" height="120" as="geometry" />
        </mxCell>
        <mxCell id="ACvNIfzqrJBHl80gEe5v-117" value="&lt;ul&gt;&lt;li&gt;Menyemak senarai pelajar kelas anak&lt;/li&gt;&lt;li&gt;Menyemak kehadiran anak(data harian)&lt;/li&gt;&lt;/ul&gt;" style="whiteSpace=wrap;html=1;align=left;" vertex="1" parent="1">
          <mxGeometry x="2870" y="-600" width="250" height="100" as="geometry" />
        </mxCell>
        <mxCell id="ACvNIfzqrJBHl80gEe5v-123" value="&lt;ul&gt;&lt;li&gt;Menyemak senarai guru serta nombor telefon&lt;/li&gt;&lt;/ul&gt;" style="whiteSpace=wrap;html=1;align=left;" vertex="1" parent="1">
          <mxGeometry x="2870" y="-380" width="250" height="100" as="geometry" />
        </mxCell>
        <mxCell id="ACvNIfzqrJBHl80gEe5v-125" value="&lt;ul&gt;&lt;li&gt;Memilih/Mendaftar kelas untuk anak&lt;/li&gt;&lt;/ul&gt;" style="whiteSpace=wrap;html=1;align=left;" vertex="1" parent="1">
          <mxGeometry x="2870" y="205" width="250" height="100" as="geometry" />
        </mxCell>
        <mxCell id="ACvNIfzqrJBHl80gEe5v-126" value="&lt;ul&gt;&lt;li&gt;Senarai hanya memaparkan anak yang didaftarkan&lt;/li&gt;&lt;li&gt;Mengemaskini maklumat anak&lt;/li&gt;&lt;/ul&gt;" style="whiteSpace=wrap;html=1;align=left;" vertex="1" parent="1">
          <mxGeometry x="2880" y="5" width="250" height="100" as="geometry" />
        </mxCell>
        <mxCell id="ACvNIfzqrJBHl80gEe5v-127" value="&lt;ul&gt;&lt;li&gt;Mendaftar anak untuk kemasukan&lt;/li&gt;&lt;/ul&gt;" style="whiteSpace=wrap;html=1;align=left;" vertex="1" parent="1">
          <mxGeometry x="2870" y="405" width="250" height="100" as="geometry" />
        </mxCell>
        <mxCell id="ACvNIfzqrJBHl80gEe5v-136" value="" style="edgeStyle=orthogonalEdgeStyle;rounded=0;orthogonalLoop=1;jettySize=auto;html=1;" edge="1" parent="1" source="ACvNIfzqrJBHl80gEe5v-131" target="ACvNIfzqrJBHl80gEe5v-135">
          <mxGeometry relative="1" as="geometry" />
        </mxCell>
        <mxCell id="ACvNIfzqrJBHl80gEe5v-131" value="&lt;ul&gt;&lt;li&gt;Membuat pesanan untuk invois pembayaran yuran pendaftaran, produk, bulanan&lt;/li&gt;&lt;/ul&gt;" style="whiteSpace=wrap;html=1;align=left;" vertex="1" parent="1">
          <mxGeometry x="2880" y="610" width="250" height="100" as="geometry" />
        </mxCell>
        <mxCell id="ACvNIfzqrJBHl80gEe5v-132" value="&lt;ul&gt;&lt;li&gt;Menyemak pembelian yang telah dibuat&lt;/li&gt;&lt;li&gt;&#39;Withdraw&#39;/Cancel/Menarik pesanan&lt;/li&gt;&lt;/ul&gt;" style="whiteSpace=wrap;html=1;align=left;" vertex="1" parent="1">
          <mxGeometry x="2880" y="810" width="250" height="100" as="geometry" />
        </mxCell>
        <mxCell id="ACvNIfzqrJBHl80gEe5v-135" value="&lt;ul&gt;&lt;li&gt;Bayaran dibuat dalam masa 7 hari selepas membuat pesanan&lt;/li&gt;&lt;li&gt;Menunggu pengesahan selepas membuat pembayaran dari guru kelas anak&lt;/li&gt;&lt;/ul&gt;" style="whiteSpace=wrap;html=1;align=left;" vertex="1" parent="1">
          <mxGeometry x="3210" y="610" width="250" height="100" as="geometry" />
        </mxCell>
      </root>
    </mxGraphModel>
  </diagram>
</mxfile>
